<mxfile host="app.diagrams.net" modified="2021-03-01T09:55:51.504Z" agent="5.0 (Windows NT 10.0; Win64; x64) AppleWebKit/537.36 (KHTML, like Gecko) Chrome/88.0.4324.182 Safari/537.36" etag="b1ji19FZOJ8i1WsvIwiu" version="14.4.3" type="github">
  <diagram id="LmNHkAMFc_MV63TZnNPk" name="Page-1">
    <mxGraphModel dx="998" dy="507" grid="1" gridSize="10" guides="1" tooltips="1" connect="1" arrows="1" fold="1" page="1" pageScale="1" pageWidth="850" pageHeight="1100" math="0" shadow="0">
      <root>
        <mxCell id="0" />
        <mxCell id="1" parent="0" />
        <mxCell id="ApkIDRKxxLrVkBf8YNB4-17" style="rounded=0;orthogonalLoop=1;jettySize=auto;html=1;exitX=0.5;exitY=1;exitDx=0;exitDy=0;entryX=0.426;entryY=0.005;entryDx=0;entryDy=0;entryPerimeter=0;" parent="1" source="h-9vXJWDtknDthflBs6K-2" target="ApkIDRKxxLrVkBf8YNB4-16" edge="1">
          <mxGeometry relative="1" as="geometry" />
        </mxCell>
        <mxCell id="ApkIDRKxxLrVkBf8YNB4-31" style="edgeStyle=orthogonalEdgeStyle;rounded=0;orthogonalLoop=1;jettySize=auto;html=1;exitX=1;exitY=0.5;exitDx=0;exitDy=0;" parent="1" source="h-9vXJWDtknDthflBs6K-2" target="h-9vXJWDtknDthflBs6K-47" edge="1">
          <mxGeometry relative="1" as="geometry" />
        </mxCell>
        <mxCell id="h-9vXJWDtknDthflBs6K-2" value="&lt;span&gt;RQ1: How does complexity arise LA? (or Education, or Analytics)&lt;/span&gt;" style="rounded=0;whiteSpace=wrap;html=1;fillColor=#fff2cc;strokeColor=#d6b656;" parent="1" vertex="1">
          <mxGeometry x="161" y="290" width="299" height="60" as="geometry" />
        </mxCell>
        <mxCell id="h-9vXJWDtknDthflBs6K-4" value="" style="shape=link;html=1;" parent="1" edge="1">
          <mxGeometry width="50" height="50" relative="1" as="geometry">
            <mxPoint x="10" y="390" as="sourcePoint" />
            <mxPoint x="830" y="390" as="targetPoint" />
          </mxGeometry>
        </mxCell>
        <mxCell id="h-9vXJWDtknDthflBs6K-5" value="" style="shape=link;html=1;" parent="1" edge="1">
          <mxGeometry width="50" height="50" relative="1" as="geometry">
            <mxPoint x="5" y="810" as="sourcePoint" />
            <mxPoint x="825" y="810" as="targetPoint" />
          </mxGeometry>
        </mxCell>
        <mxCell id="h-9vXJWDtknDthflBs6K-6" value="" style="shape=link;html=1;" parent="1" edge="1">
          <mxGeometry width="50" height="50" relative="1" as="geometry">
            <mxPoint x="1" y="240" as="sourcePoint" />
            <mxPoint x="829" y="240" as="targetPoint" />
          </mxGeometry>
        </mxCell>
        <mxCell id="h-9vXJWDtknDthflBs6K-8" value="CONTEXT" style="text;html=1;align=center;verticalAlign=middle;resizable=0;points=[];autosize=1;" parent="1" vertex="1">
          <mxGeometry x="1" y="24" width="70" height="20" as="geometry" />
        </mxCell>
        <mxCell id="h-9vXJWDtknDthflBs6K-9" value="QUESTIONS" style="text;html=1;align=center;verticalAlign=middle;resizable=0;points=[];autosize=1;" parent="1" vertex="1">
          <mxGeometry y="260" width="90" height="20" as="geometry" />
        </mxCell>
        <mxCell id="h-9vXJWDtknDthflBs6K-10" value="CONTRIBUTIONS" style="text;html=1;align=center;verticalAlign=middle;resizable=0;points=[];autosize=1;" parent="1" vertex="1">
          <mxGeometry x="10" y="820" width="110" height="20" as="geometry" />
        </mxCell>
        <mxCell id="h-9vXJWDtknDthflBs6K-12" value="EVALUATION" style="text;html=1;align=center;verticalAlign=middle;resizable=0;points=[];autosize=1;" parent="1" vertex="1">
          <mxGeometry x="20" y="1060" width="90" height="20" as="geometry" />
        </mxCell>
        <mxCell id="h-9vXJWDtknDthflBs6K-13" value="" style="shape=link;html=1;" parent="1" edge="1">
          <mxGeometry width="50" height="50" relative="1" as="geometry">
            <mxPoint x="15" y="1050" as="sourcePoint" />
            <mxPoint x="835" y="1050" as="targetPoint" />
          </mxGeometry>
        </mxCell>
        <mxCell id="CZbT8mmbhP1wK1BWOiRL-19" style="edgeStyle=none;rounded=0;orthogonalLoop=1;jettySize=auto;html=1;exitX=1;exitY=0.5;exitDx=0;exitDy=0;entryX=0;entryY=0.5;entryDx=0;entryDy=0;" edge="1" parent="1" source="h-9vXJWDtknDthflBs6K-14" target="ApkIDRKxxLrVkBf8YNB4-52">
          <mxGeometry relative="1" as="geometry" />
        </mxCell>
        <mxCell id="h-9vXJWDtknDthflBs6K-14" value="Complexity model within the field of LA" style="rounded=1;whiteSpace=wrap;html=1;" parent="1" vertex="1">
          <mxGeometry x="161" y="855" width="130" height="50" as="geometry" />
        </mxCell>
        <mxCell id="ApkIDRKxxLrVkBf8YNB4-38" style="rounded=0;orthogonalLoop=1;jettySize=auto;html=1;exitX=0.5;exitY=1;exitDx=0;exitDy=0;entryX=0.25;entryY=0;entryDx=0;entryDy=0;" parent="1" source="h-9vXJWDtknDthflBs6K-16" target="h-9vXJWDtknDthflBs6K-42" edge="1">
          <mxGeometry relative="1" as="geometry" />
        </mxCell>
        <mxCell id="h-9vXJWDtknDthflBs6K-16" value="Rosen Complexity" style="rounded=1;whiteSpace=wrap;html=1;" parent="1" vertex="1">
          <mxGeometry x="218.75" y="480" width="120" height="20" as="geometry" />
        </mxCell>
        <mxCell id="ApkIDRKxxLrVkBf8YNB4-39" style="rounded=0;orthogonalLoop=1;jettySize=auto;html=1;exitX=0.5;exitY=1;exitDx=0;exitDy=0;entryX=0.75;entryY=0;entryDx=0;entryDy=0;" parent="1" source="h-9vXJWDtknDthflBs6K-17" target="h-9vXJWDtknDthflBs6K-42" edge="1">
          <mxGeometry relative="1" as="geometry" />
        </mxCell>
        <mxCell id="h-9vXJWDtknDthflBs6K-17" value="Causal Inference" style="rounded=1;whiteSpace=wrap;html=1;" parent="1" vertex="1">
          <mxGeometry x="363.75" y="480" width="120" height="20" as="geometry" />
        </mxCell>
        <mxCell id="CZbT8mmbhP1wK1BWOiRL-2" style="rounded=0;orthogonalLoop=1;jettySize=auto;html=1;exitX=1;exitY=0.5;exitDx=0;exitDy=0;entryX=0;entryY=0.5;entryDx=0;entryDy=0;" edge="1" parent="1" source="h-9vXJWDtknDthflBs6K-25" target="h-9vXJWDtknDthflBs6K-56">
          <mxGeometry relative="1" as="geometry" />
        </mxCell>
        <mxCell id="CZbT8mmbhP1wK1BWOiRL-4" style="edgeStyle=none;rounded=0;orthogonalLoop=1;jettySize=auto;html=1;exitX=0.5;exitY=1;exitDx=0;exitDy=0;entryX=0.5;entryY=0;entryDx=0;entryDy=0;" edge="1" parent="1" source="h-9vXJWDtknDthflBs6K-25" target="CZbT8mmbhP1wK1BWOiRL-3">
          <mxGeometry relative="1" as="geometry" />
        </mxCell>
        <mxCell id="h-9vXJWDtknDthflBs6K-25" value="Theory - Practitioner gap" style="rounded=1;whiteSpace=wrap;html=1;" parent="1" vertex="1">
          <mxGeometry x="60" y="90" width="120" height="50" as="geometry" />
        </mxCell>
        <mxCell id="ApkIDRKxxLrVkBf8YNB4-35" style="rounded=0;orthogonalLoop=1;jettySize=auto;html=1;exitX=1;exitY=0.5;exitDx=0;exitDy=0;entryX=0;entryY=0.5;entryDx=0;entryDy=0;" parent="1" source="h-9vXJWDtknDthflBs6K-27" target="mA0smehwSJ2bHxJVc1lk-5" edge="1">
          <mxGeometry relative="1" as="geometry" />
        </mxCell>
        <mxCell id="h-9vXJWDtknDthflBs6K-27" value="Reductionism v White Flag / Wrong v Useless" style="rounded=1;whiteSpace=wrap;html=1;fontStyle=1" parent="1" vertex="1">
          <mxGeometry x="130" y="160" width="120" height="60" as="geometry" />
        </mxCell>
        <mxCell id="ApkIDRKxxLrVkBf8YNB4-56" style="edgeStyle=none;rounded=0;orthogonalLoop=1;jettySize=auto;html=1;exitX=0.25;exitY=1;exitDx=0;exitDy=0;" parent="1" source="h-9vXJWDtknDthflBs6K-35" target="h-9vXJWDtknDthflBs6K-48" edge="1">
          <mxGeometry relative="1" as="geometry" />
        </mxCell>
        <mxCell id="ApkIDRKxxLrVkBf8YNB4-57" style="edgeStyle=none;rounded=0;orthogonalLoop=1;jettySize=auto;html=1;exitX=0.75;exitY=1;exitDx=0;exitDy=0;entryX=0.5;entryY=0;entryDx=0;entryDy=0;" parent="1" source="h-9vXJWDtknDthflBs6K-35" target="h-9vXJWDtknDthflBs6K-50" edge="1">
          <mxGeometry relative="1" as="geometry" />
        </mxCell>
        <mxCell id="h-9vXJWDtknDthflBs6K-35" value="Better questions to ask of a complex LA system" style="rounded=1;whiteSpace=wrap;html=1;" parent="1" vertex="1">
          <mxGeometry x="161" y="960" width="150" height="70" as="geometry" />
        </mxCell>
        <mxCell id="ApkIDRKxxLrVkBf8YNB4-2" style="edgeStyle=orthogonalEdgeStyle;rounded=0;orthogonalLoop=1;jettySize=auto;html=1;exitX=0.5;exitY=1;exitDx=0;exitDy=0;curved=1;entryX=0.25;entryY=0;entryDx=0;entryDy=0;" parent="1" source="h-9vXJWDtknDthflBs6K-36" target="h-9vXJWDtknDthflBs6K-47" edge="1">
          <mxGeometry relative="1" as="geometry" />
        </mxCell>
        <mxCell id="ApkIDRKxxLrVkBf8YNB4-44" style="edgeStyle=orthogonalEdgeStyle;curved=1;rounded=0;orthogonalLoop=1;jettySize=auto;html=1;exitX=0;exitY=0.5;exitDx=0;exitDy=0;entryX=1;entryY=0.5;entryDx=0;entryDy=0;" parent="1" source="h-9vXJWDtknDthflBs6K-36" target="mA0smehwSJ2bHxJVc1lk-5" edge="1">
          <mxGeometry relative="1" as="geometry" />
        </mxCell>
        <mxCell id="h-9vXJWDtknDthflBs6K-36" value="What questions are being asked (currently) of LA systems?" style="rounded=1;whiteSpace=wrap;html=1;" parent="1" vertex="1">
          <mxGeometry x="460" y="160" width="165" height="60" as="geometry" />
        </mxCell>
        <mxCell id="h-9vXJWDtknDthflBs6K-47" value="RQ2: How can we better approach complex systems analysis in LA?" style="rounded=0;whiteSpace=wrap;html=1;fillColor=#ffe6cc;strokeColor=#d79b00;" parent="1" vertex="1">
          <mxGeometry x="500" y="290" width="310" height="60" as="geometry" />
        </mxCell>
        <mxCell id="h-9vXJWDtknDthflBs6K-48" value="Set of critical questions to help understand complex systems" style="rounded=1;whiteSpace=wrap;html=1;" parent="1" vertex="1">
          <mxGeometry x="30" y="1130" width="120" height="60" as="geometry" />
        </mxCell>
        <mxCell id="h-9vXJWDtknDthflBs6K-50" value="Patterns in LA...can we find invariants within LA systems (maybe NP complete, maybe hom bar codes)" style="rounded=1;whiteSpace=wrap;html=1;" parent="1" vertex="1">
          <mxGeometry x="310" y="1150" width="140" height="110" as="geometry" />
        </mxCell>
        <mxCell id="h-9vXJWDtknDthflBs6K-51" value="OBJECTIVES" style="text;html=1;align=center;verticalAlign=middle;resizable=0;points=[];autosize=1;" parent="1" vertex="1">
          <mxGeometry x="1" y="400" width="90" height="20" as="geometry" />
        </mxCell>
        <mxCell id="ApkIDRKxxLrVkBf8YNB4-25" style="edgeStyle=orthogonalEdgeStyle;rounded=0;orthogonalLoop=1;jettySize=auto;html=1;exitX=0.5;exitY=1;exitDx=0;exitDy=0;curved=1;" parent="1" source="h-9vXJWDtknDthflBs6K-56" target="mA0smehwSJ2bHxJVc1lk-5" edge="1">
          <mxGeometry relative="1" as="geometry" />
        </mxCell>
        <mxCell id="ApkIDRKxxLrVkBf8YNB4-26" style="rounded=0;orthogonalLoop=1;jettySize=auto;html=1;exitX=0.25;exitY=1;exitDx=0;exitDy=0;entryX=0.5;entryY=0;entryDx=0;entryDy=0;" parent="1" source="h-9vXJWDtknDthflBs6K-56" target="h-9vXJWDtknDthflBs6K-27" edge="1">
          <mxGeometry relative="1" as="geometry" />
        </mxCell>
        <mxCell id="h-9vXJWDtknDthflBs6K-56" value="Learning is complex" style="rounded=1;whiteSpace=wrap;html=1;" parent="1" vertex="1">
          <mxGeometry x="273.75" y="90" width="90" height="40" as="geometry" />
        </mxCell>
        <mxCell id="ApkIDRKxxLrVkBf8YNB4-32" style="edgeStyle=orthogonalEdgeStyle;rounded=0;orthogonalLoop=1;jettySize=auto;html=1;exitX=0.5;exitY=1;exitDx=0;exitDy=0;curved=1;" parent="1" source="mA0smehwSJ2bHxJVc1lk-5" target="h-9vXJWDtknDthflBs6K-2" edge="1">
          <mxGeometry relative="1" as="geometry" />
        </mxCell>
        <mxCell id="mA0smehwSJ2bHxJVc1lk-5" value="Confusion in communication and decision making around complex LA systems" style="rounded=1;whiteSpace=wrap;html=1;" parent="1" vertex="1">
          <mxGeometry x="278.75" y="150" width="120" height="80" as="geometry" />
        </mxCell>
        <mxCell id="ApkIDRKxxLrVkBf8YNB4-51" style="edgeStyle=none;rounded=0;orthogonalLoop=1;jettySize=auto;html=1;exitX=0.5;exitY=1;exitDx=0;exitDy=0;entryX=0.5;entryY=0;entryDx=0;entryDy=0;" parent="1" source="sfIImLreEvvxbb7hrz45-5" target="ApkIDRKxxLrVkBf8YNB4-50" edge="1">
          <mxGeometry relative="1" as="geometry" />
        </mxCell>
        <mxCell id="sfIImLreEvvxbb7hrz45-5" value="A step between (before?) data cleaning and EDA; includes Causal DAG and other context providing data from experts" style="rounded=1;whiteSpace=wrap;html=1;" parent="1" vertex="1">
          <mxGeometry x="460" y="680" width="210" height="60" as="geometry" />
        </mxCell>
        <mxCell id="CZbT8mmbhP1wK1BWOiRL-27" style="edgeStyle=none;rounded=0;orthogonalLoop=1;jettySize=auto;html=1;exitX=0.5;exitY=1;exitDx=0;exitDy=0;entryX=0.5;entryY=0;entryDx=0;entryDy=0;" edge="1" parent="1" source="ApkIDRKxxLrVkBf8YNB4-10" target="CZbT8mmbhP1wK1BWOiRL-25">
          <mxGeometry relative="1" as="geometry" />
        </mxCell>
        <mxCell id="ApkIDRKxxLrVkBf8YNB4-10" value="Find ways of performing an epistemic cut (between perfect and reduced causal DAG)" style="rounded=1;whiteSpace=wrap;html=1;" parent="1" vertex="1">
          <mxGeometry x="530" y="500" width="120" height="100" as="geometry" />
        </mxCell>
        <mxCell id="ApkIDRKxxLrVkBf8YNB4-21" style="rounded=0;orthogonalLoop=1;jettySize=auto;html=1;exitX=0.25;exitY=1;exitDx=0;exitDy=0;entryX=0.5;entryY=0;entryDx=0;entryDy=0;" parent="1" source="ApkIDRKxxLrVkBf8YNB4-16" target="h-9vXJWDtknDthflBs6K-16" edge="1">
          <mxGeometry relative="1" as="geometry" />
        </mxCell>
        <mxCell id="ApkIDRKxxLrVkBf8YNB4-37" style="rounded=0;orthogonalLoop=1;jettySize=auto;html=1;exitX=0.75;exitY=1;exitDx=0;exitDy=0;entryX=0.5;entryY=0;entryDx=0;entryDy=0;" parent="1" source="ApkIDRKxxLrVkBf8YNB4-16" target="h-9vXJWDtknDthflBs6K-17" edge="1">
          <mxGeometry relative="1" as="geometry" />
        </mxCell>
        <mxCell id="ApkIDRKxxLrVkBf8YNB4-16" value="Literature Review" style="whiteSpace=wrap;html=1;rounded=1;glass=0;" parent="1" vertex="1">
          <mxGeometry x="230" y="430" width="177.5" height="30" as="geometry" />
        </mxCell>
        <mxCell id="CZbT8mmbhP1wK1BWOiRL-18" style="edgeStyle=none;rounded=0;orthogonalLoop=1;jettySize=auto;html=1;exitX=0.5;exitY=1;exitDx=0;exitDy=0;entryX=0.5;entryY=0;entryDx=0;entryDy=0;" edge="1" parent="1" source="ApkIDRKxxLrVkBf8YNB4-18" target="CZbT8mmbhP1wK1BWOiRL-5">
          <mxGeometry relative="1" as="geometry" />
        </mxCell>
        <mxCell id="CZbT8mmbhP1wK1BWOiRL-30" style="edgeStyle=none;rounded=0;orthogonalLoop=1;jettySize=auto;html=1;exitX=1;exitY=0.5;exitDx=0;exitDy=0;entryX=0;entryY=0.5;entryDx=0;entryDy=0;" edge="1" parent="1" source="ApkIDRKxxLrVkBf8YNB4-18" target="CZbT8mmbhP1wK1BWOiRL-25">
          <mxGeometry relative="1" as="geometry" />
        </mxCell>
        <mxCell id="ApkIDRKxxLrVkBf8YNB4-18" value="Complexity Case Studies: Retention / SFS / etc" style="whiteSpace=wrap;html=1;rounded=1;glass=0;" parent="1" vertex="1">
          <mxGeometry x="10" y="670" width="120" height="60" as="geometry" />
        </mxCell>
        <mxCell id="CZbT8mmbhP1wK1BWOiRL-28" style="edgeStyle=none;rounded=0;orthogonalLoop=1;jettySize=auto;html=1;exitX=1;exitY=0.5;exitDx=0;exitDy=0;entryX=0;entryY=0.5;entryDx=0;entryDy=0;" edge="1" parent="1" source="h-9vXJWDtknDthflBs6K-42" target="ApkIDRKxxLrVkBf8YNB4-10">
          <mxGeometry relative="1" as="geometry" />
        </mxCell>
        <mxCell id="h-9vXJWDtknDthflBs6K-42" value="Define / model complexity &lt;br&gt;(Multiple models / causal loops / dense causal graph)" style="rounded=1;whiteSpace=wrap;html=1;" parent="1" vertex="1">
          <mxGeometry x="245" y="520" width="205" height="60" as="geometry" />
        </mxCell>
        <mxCell id="ApkIDRKxxLrVkBf8YNB4-45" value="" style="endArrow=classic;html=1;exitX=0.5;exitY=1;exitDx=0;exitDy=0;" parent="1" source="h-9vXJWDtknDthflBs6K-47" target="ApkIDRKxxLrVkBf8YNB4-10" edge="1">
          <mxGeometry width="50" height="50" relative="1" as="geometry">
            <mxPoint x="500" y="360" as="sourcePoint" />
            <mxPoint x="420" y="380" as="targetPoint" />
          </mxGeometry>
        </mxCell>
        <mxCell id="ApkIDRKxxLrVkBf8YNB4-55" style="edgeStyle=none;rounded=0;orthogonalLoop=1;jettySize=auto;html=1;exitX=0;exitY=0.5;exitDx=0;exitDy=0;entryX=1;entryY=0.75;entryDx=0;entryDy=0;" parent="1" source="ApkIDRKxxLrVkBf8YNB4-50" target="h-9vXJWDtknDthflBs6K-35" edge="1">
          <mxGeometry relative="1" as="geometry" />
        </mxCell>
        <mxCell id="ApkIDRKxxLrVkBf8YNB4-50" value="Mathematical framework for embedding &#39;context&#39; in analysis" style="whiteSpace=wrap;html=1;rounded=1;glass=0;" parent="1" vertex="1">
          <mxGeometry x="500" y="900" width="120" height="60" as="geometry" />
        </mxCell>
        <mxCell id="ApkIDRKxxLrVkBf8YNB4-52" value="Mathematical framework for approaching complex systems" style="whiteSpace=wrap;html=1;rounded=1;glass=0;" parent="1" vertex="1">
          <mxGeometry x="326.25" y="850" width="120" height="60" as="geometry" />
        </mxCell>
        <mxCell id="ApkIDRKxxLrVkBf8YNB4-59" value="Causal model embedded in CSU retention work" style="whiteSpace=wrap;html=1;rounded=1;glass=0;" parent="1" vertex="1">
          <mxGeometry x="560" y="1110" width="120" height="60" as="geometry" />
        </mxCell>
        <mxCell id="CZbT8mmbhP1wK1BWOiRL-3" value="RQ0: How does the Theory - Practitioner Gap arise in education?" style="whiteSpace=wrap;html=1;" vertex="1" parent="1">
          <mxGeometry x="10" y="290" width="120" height="60" as="geometry" />
        </mxCell>
        <mxCell id="CZbT8mmbhP1wK1BWOiRL-20" style="edgeStyle=none;rounded=0;orthogonalLoop=1;jettySize=auto;html=1;exitX=1;exitY=0.5;exitDx=0;exitDy=0;entryX=0;entryY=0.5;entryDx=0;entryDy=0;" edge="1" parent="1" source="CZbT8mmbhP1wK1BWOiRL-5" target="h-9vXJWDtknDthflBs6K-14">
          <mxGeometry relative="1" as="geometry" />
        </mxCell>
        <mxCell id="CZbT8mmbhP1wK1BWOiRL-5" value="Defining the Theory - Practitioner gap" style="whiteSpace=wrap;html=1;rounded=1;" vertex="1" parent="1">
          <mxGeometry x="20" y="855" width="120" height="60" as="geometry" />
        </mxCell>
        <mxCell id="CZbT8mmbhP1wK1BWOiRL-7" value="Find examples of T-P gap" style="whiteSpace=wrap;html=1;rounded=1;" vertex="1" parent="1">
          <mxGeometry x="10" y="440" width="120" height="60" as="geometry" />
        </mxCell>
        <mxCell id="CZbT8mmbhP1wK1BWOiRL-8" style="edgeStyle=none;rounded=0;orthogonalLoop=1;jettySize=auto;html=1;exitX=0.5;exitY=1;exitDx=0;exitDy=0;entryX=0.5;entryY=0;entryDx=0;entryDy=0;" edge="1" parent="1" source="CZbT8mmbhP1wK1BWOiRL-3" target="CZbT8mmbhP1wK1BWOiRL-7">
          <mxGeometry relative="1" as="geometry">
            <mxPoint x="70" y="350" as="sourcePoint" />
            <mxPoint x="70" y="670" as="targetPoint" />
          </mxGeometry>
        </mxCell>
        <mxCell id="CZbT8mmbhP1wK1BWOiRL-11" style="edgeStyle=orthogonalEdgeStyle;rounded=0;orthogonalLoop=1;jettySize=auto;html=1;exitX=1;exitY=0.25;exitDx=0;exitDy=0;entryX=0;entryY=0.5;entryDx=0;entryDy=0;curved=1;" edge="1" parent="1" source="CZbT8mmbhP1wK1BWOiRL-9" target="ApkIDRKxxLrVkBf8YNB4-16">
          <mxGeometry relative="1" as="geometry" />
        </mxCell>
        <mxCell id="CZbT8mmbhP1wK1BWOiRL-17" style="edgeStyle=none;rounded=0;orthogonalLoop=1;jettySize=auto;html=1;exitX=0.5;exitY=1;exitDx=0;exitDy=0;entryX=0.5;entryY=0;entryDx=0;entryDy=0;" edge="1" parent="1" source="CZbT8mmbhP1wK1BWOiRL-9" target="ApkIDRKxxLrVkBf8YNB4-18">
          <mxGeometry relative="1" as="geometry" />
        </mxCell>
        <mxCell id="CZbT8mmbhP1wK1BWOiRL-9" value="Classify where T-P gap is occurring. When is it because of complexity?" style="whiteSpace=wrap;html=1;rounded=1;" vertex="1" parent="1">
          <mxGeometry x="10" y="530" width="120" height="60" as="geometry" />
        </mxCell>
        <mxCell id="CZbT8mmbhP1wK1BWOiRL-10" style="edgeStyle=none;rounded=0;orthogonalLoop=1;jettySize=auto;html=1;exitX=0.5;exitY=1;exitDx=0;exitDy=0;entryX=0.5;entryY=0;entryDx=0;entryDy=0;" edge="1" parent="1" source="CZbT8mmbhP1wK1BWOiRL-7" target="CZbT8mmbhP1wK1BWOiRL-9">
          <mxGeometry relative="1" as="geometry">
            <mxPoint x="50" y="500" as="sourcePoint" />
            <mxPoint x="70" y="670" as="targetPoint" />
          </mxGeometry>
        </mxCell>
        <mxCell id="CZbT8mmbhP1wK1BWOiRL-13" style="edgeStyle=none;rounded=0;orthogonalLoop=1;jettySize=auto;html=1;exitX=0.25;exitY=1;exitDx=0;exitDy=0;entryX=0.5;entryY=0;entryDx=0;entryDy=0;" edge="1" parent="1" source="CZbT8mmbhP1wK1BWOiRL-12" target="h-9vXJWDtknDthflBs6K-25">
          <mxGeometry relative="1" as="geometry" />
        </mxCell>
        <mxCell id="CZbT8mmbhP1wK1BWOiRL-12" value="Literature Review / Justifying T-P Gap...todo" style="whiteSpace=wrap;html=1;rounded=1;" vertex="1" parent="1">
          <mxGeometry x="271.25" y="10" width="218.75" height="60" as="geometry" />
        </mxCell>
        <mxCell id="CZbT8mmbhP1wK1BWOiRL-15" value="METHODS" style="text;html=1;align=center;verticalAlign=middle;resizable=0;points=[];autosize=1;" vertex="1" parent="1">
          <mxGeometry x="20" y="630" width="80" height="20" as="geometry" />
        </mxCell>
        <mxCell id="CZbT8mmbhP1wK1BWOiRL-16" value="" style="shape=link;html=1;" edge="1" parent="1">
          <mxGeometry width="50" height="50" relative="1" as="geometry">
            <mxPoint x="10" y="620" as="sourcePoint" />
            <mxPoint x="830" y="620" as="targetPoint" />
          </mxGeometry>
        </mxCell>
        <mxCell id="CZbT8mmbhP1wK1BWOiRL-23" style="edgeStyle=none;rounded=0;orthogonalLoop=1;jettySize=auto;html=1;exitX=0.25;exitY=1;exitDx=0;exitDy=0;" edge="1" parent="1" source="CZbT8mmbhP1wK1BWOiRL-22" target="h-9vXJWDtknDthflBs6K-36">
          <mxGeometry relative="1" as="geometry" />
        </mxCell>
        <mxCell id="CZbT8mmbhP1wK1BWOiRL-22" value="Purpose of an analysis?" style="whiteSpace=wrap;html=1;rounded=1;" vertex="1" parent="1">
          <mxGeometry x="520" y="70" width="120" height="40" as="geometry" />
        </mxCell>
        <mxCell id="CZbT8mmbhP1wK1BWOiRL-29" style="edgeStyle=none;rounded=0;orthogonalLoop=1;jettySize=auto;html=1;exitX=1;exitY=0.5;exitDx=0;exitDy=0;entryX=0;entryY=0.5;entryDx=0;entryDy=0;" edge="1" parent="1" source="CZbT8mmbhP1wK1BWOiRL-25" target="sfIImLreEvvxbb7hrz45-5">
          <mxGeometry relative="1" as="geometry" />
        </mxCell>
        <mxCell id="CZbT8mmbhP1wK1BWOiRL-25" value="Diagnosing epistemic cuts in a complex system" style="whiteSpace=wrap;html=1;rounded=1;" vertex="1" parent="1">
          <mxGeometry x="278.75" y="680" width="120" height="60" as="geometry" />
        </mxCell>
      </root>
    </mxGraphModel>
  </diagram>
</mxfile>
